:SAMPLES-PER-SECOND 30
:FULLY-SPECIFIED
:DEGREES
403
root  -10.5067 34.412 0.413649 -172.155 1.0266 179.824
RightUpLeg  -7.28326 -8.47782 -1.40211
RightLeg  9.71815 -1.66608 -0.174969
RightFoot  1.29512 0.00451084 0.122187
RightToes  -24.9162 -0.112216 -0.213437
Spine  -3.18052 0.791859 0.915364
Spine1  -6.41988 1.8041 2.31144
HEad  -68.1289 8.36984 -3.38218
LeftShoulder1  -1.94126e-019 -3.10601e-018 -2.51263e-017
LeftArm  -17.2707 30.4195 -81.419
LeftForeArm  32.1157 -10.4654 -1.83021
LeftHand  -0.269936 0.857698 6.87869
RightShoulder  -4.96962e-017 0 -2.36833e-017
RightArm  -14.8615 -24.7906 70.7469
RightForeArm  56.4727 13.7062 1.29144
RightHand  -0.415442 -1.31911 -11.7543
LeftUpLeg  -6.31457 2.28149 1.72024
LeftLeg  8.60325 13.3655 1.13911
LeftFoot  2.6709 0.00356705 0.754181
LeftToes  -21.8056 2.14545e-006 -7.7278e-009
404
root  -10.5064 34.402 0.413607 -172.433 0.706146 179.768
RightUpLeg  -7.11781 -8.40221 -1.4758
RightLeg  10.0666 -2.02503 -0.225347
RightFoot  1.03781 0.00377716 0.124073
RightToes  -24.9548 -0.112204 -0.213171
Spine  -3.17618 0.813709 0.881127
Spine1  -6.40997 1.84571 2.23169
HEad  -67.3526 8.04171 -3.31915
LeftShoulder1  -1.94126e-019 -3.10601e-018 -2.51263e-017
LeftArm  -17.6007 30.6879 -81.0736
LeftForeArm  31.7311 -10.5661 -1.84606
LeftHand  -0.268829 0.916066 6.82224
RightShoulder  -4.96962e-017 0 -2.36833e-017
RightArm  -16.01 -24.7499 70.1965
RightForeArm  56.4688 13.3961 1.33275
RightHand  -0.393024 -1.61441 -11.9498
LeftUpLeg  -6.21069 1.81903 1.69688
LeftLeg  8.87903 13.4759 1.21307
LeftFoot  2.54608 0.00560805 0.727732
LeftToes  -21.838 2.14545e-006 -7.7278e-009
405
root  -10.5045 34.3868 0.412977 -172.686 0.103699 179.673
RightUpLeg  -6.9417 -8.73943 -1.57806
RightLeg  10.4404 -2.24371 -0.264639
RightFoot  0.677321 0.00237136 0.135964
RightToes  -24.9342 -0.112172 -0.212901
Spine  -3.17034 0.745516 0.813518
Spine1  -6.40357 1.70432 2.09526
HEad  -66.4172 7.60605 -3.00919
LeftShoulder1  -1.94126e-019 -3.10601e-018 -2.51263e-017
LeftArm  -17.7747 30.4459 -80.5694
LeftForeArm  33.2728 -10.4565 -1.82752
LeftHand  -0.273448 0.351868 6.41634
RightShoulder  -4.96962e-017 0 -2.36833e-017
RightArm  -18.3434 -24.4518 69.9814
RightForeArm  57.1929 12.6074 1.42166
RightHand  -0.37503 -1.94742 -12.4594
LeftUpLeg  -6.22446 1.38372 1.65632
LeftLeg  9.25266 13.2915 1.28333
LeftFoot  2.37189 0.00915038 0.676551
LeftToes  -21.8554 2.14545e-006 -7.7278e-009
406
root  -10.4997 34.3823 0.418666 -172.909 -0.726151 179.581
RightUpLeg  -6.69126 -9.29054 -1.66015
RightLeg  10.6375 -2.48512 -0.301881
RightFoot  0.45842 0.00134987 0.142758
RightToes  -25.0171 -0.112119 -0.212632
Spine  -3.1581 0.644121 0.699436
Spine1  -6.39298 1.47862 1.8728
HEad  -65.4499 6.86129 -2.22739
LeftShoulder1  -1.94126e-019 -3.10601e-018 -2.51263e-017
LeftArm  -18.2293 29.584 -79.797
LeftForeArm  35.388 -10.1019 -1.77028
LeftHand  -0.282187 -0.181669 5.9473
RightShoulder  -4.96962e-017 0 -2.36833e-017
RightArm  -21.0314 -24.2093 70.1055
RightForeArm  57.9424 11.7642 1.49489
RightHand  -0.346984 -2.34968 -12.9856
LeftUpLeg  -6.27323 0.923183 1.63808
LeftLeg  9.53223 12.923 1.31141
LeftFoot  2.28263 0.0118116 0.637631
LeftToes  -21.9469 2.14545e-006 -7.7278e-009
407
root  -10.4891 34.3954 0.426688 -173.129 -1.65808 179.478
RightUpLeg  -6.29702 -9.84969 -1.73535
RightLeg  10.5632 -2.84107 -0.34145
RightFoot  0.377058 0.000872078 0.142172
RightToes  -24.8311 -0.112049 -0.212369
Spine  -3.15034 0.556126 0.561775
Spine1  -6.39391 1.26372 1.60561
HEad  -64.2512 5.95246 -1.52543
LeftShoulder1  -1.94126e-019 -3.10601e-018 -2.51263e-017
LeftArm  -18.7294 28.3851 -78.8645
LeftForeArm  36.0349 -9.76735 -1.71428
LeftHand  -0.286464 -0.172513 6.04604
RightShoulder  -4.96962e-017 0 -2.36833e-017
RightArm  -22.9531 -24.1669 70.4278
RightForeArm  58.4422 11.1514 1.5281
RightHand  -0.320524 -2.65939 -13.2909
LeftUpLeg  -6.25424 0.326721 1.62242
LeftLeg  9.61857 12.5897 1.29712
LeftFoot  2.34331 0.0121012 0.634102
LeftToes  -22.026 2.14545e-006 -7.7278e-009
408
root  -10.4694 34.4197 0.438124 -173.341 -2.5484 179.398
RightUpLeg  -5.8344 -10.3138 -1.77321
RightLeg  10.3013 -3.26018 -0.376746
RightFoot  0.41772 0.000921224 0.13444
RightToes  -24.5055 -0.111962 -0.21212
Spine  -3.12711 0.504525 0.430159
Spine1  -6.36048 1.12182 1.3464
HEad  -63.08 5.01384 -0.918444
LeftShoulder1  -1.94126e-019 -3.10601e-018 -2.51263e-017
LeftArm  -19.2582 27.1361 -77.8974
LeftForeArm  35.3984 -9.847 -1.7278
LeftHand  -0.294234 0.0936518 6.49525
RightShoulder  -4.96962e-017 0 -2.36833e-017
RightArm  -23.1961 -24.2605 70.8264
RightForeArm  58.9642 10.95 1.53368
RightHand  -0.328963 -2.61062 -13.4187
LeftUpLeg  -6.23812 -0.334519 1.63113
LeftLeg  9.6934 12.3667 1.29067
LeftFoot  2.45618 0.0112905 0.64617
LeftToes  -22.1243 2.14545e-006 -7.7278e-009
409
root  -10.4433 34.4454 0.452622 -173.596 -3.30246 179.34
RightUpLeg  -5.3083 -10.7791 -1.79901
RightLeg  9.93849 -3.52863 -0.38514
RightFoot  0.56902 0.00151939 0.119239
RightToes  -24.5073 -0.111859 -0.211888
Spine  -3.05303 0.493491 0.315767
Spine1  -6.22016 1.07233 1.11248
HEad  -62.1982 4.31785 -0.610735
LeftShoulder1  -1.94126e-019 -3.10601e-018 -2.51263e-017
LeftArm  -19.6759 25.9021 -77.0123
LeftForeArm  34.2934 -10.423 -1.82071
LeftHand  -0.294569 0.460397 6.94895
RightShoulder  -4.96962e-017 0 -2.36833e-017
RightArm  -21.9124 -24.3838 71.2675
RightForeArm  59.3608 11.2432 1.52161
RightHand  -0.352709 -2.39842 -13.4167
LeftUpLeg  -6.22553 -1.09348 1.64894
LeftLeg  9.90359 12.3592 1.33535
LeftFoot  2.52557 0.0103726 0.658363
LeftToes  -22.2212 2.14545e-006 -7.7278e-009
